<mxfile host="65bd71144e">
    <diagram id="motWcRdTyZ7ENs-WGaTD" name="Page-1">
        <mxGraphModel dx="448" dy="690" grid="1" gridSize="10" guides="1" tooltips="1" connect="1" arrows="1" fold="1" page="1" pageScale="1" pageWidth="850" pageHeight="1100" math="0" shadow="0">
            <root>
                <mxCell id="0"/>
                <mxCell id="1" parent="0"/>
                <mxCell id="2" value="" style="group;strokeColor=#FF3333;labelBackgroundColor=none;fontColor=#FFFFFF;" vertex="1" connectable="0" parent="1">
                    <mxGeometry x="490" y="560" width="460" height="230" as="geometry"/>
                </mxCell>
                <mxCell id="3" value="Pipeline Scheduler" style="rhombus;whiteSpace=wrap;html=1;fillColor=#FF3333;strokeColor=#FF3333;labelBackgroundColor=none;fontColor=#FFFFFF;" vertex="1" parent="2">
                    <mxGeometry x="10" width="100" height="100" as="geometry"/>
                </mxCell>
                <mxCell id="4" value="Queue" style="rounded=0;whiteSpace=wrap;html=1;fillColor=#FF3333;strokeColor=#FF3333;labelBackgroundColor=none;fontColor=#FFFFFF;" vertex="1" parent="2">
                    <mxGeometry x="170" y="20" width="120" height="60" as="geometry"/>
                </mxCell>
                <mxCell id="5" style="edgeStyle=none;html=1;entryX=0;entryY=0.5;entryDx=0;entryDy=0;strokeColor=#FF3333;labelBackgroundColor=none;fontColor=#FFFFFF;" edge="1" parent="2" source="3" target="4">
                    <mxGeometry relative="1" as="geometry"/>
                </mxCell>
                <mxCell id="6" style="edgeStyle=none;html=1;entryX=1;entryY=0.5;entryDx=0;entryDy=0;strokeColor=#FF3333;labelBackgroundColor=none;fontColor=#FFFFFF;" edge="1" parent="2" source="7" target="4">
                    <mxGeometry relative="1" as="geometry"/>
                </mxCell>
                <mxCell id="7" value="Pipeline Executioner" style="rhombus;whiteSpace=wrap;html=1;fillColor=#FF3333;strokeColor=#FF3333;labelBackgroundColor=none;fontColor=#FFFFFF;" vertex="1" parent="2">
                    <mxGeometry x="350" width="100" height="100" as="geometry"/>
                </mxCell>
                <mxCell id="8" style="edgeStyle=none;html=1;entryX=0;entryY=0.5;entryDx=0;entryDy=0;strokeColor=#FF3333;labelBackgroundColor=none;fontColor=#FFFFFF;" edge="1" parent="2" source="4" target="7">
                    <mxGeometry relative="1" as="geometry"/>
                </mxCell>
                <mxCell id="9" style="edgeStyle=none;html=1;entryX=0.5;entryY=1;entryDx=0;entryDy=0;strokeColor=#FF3333;labelBackgroundColor=none;fontColor=#FFFFFF;" edge="1" parent="2" source="10" target="3">
                    <mxGeometry relative="1" as="geometry"/>
                </mxCell>
                <mxCell id="10" value="Retry Queue" style="rounded=0;whiteSpace=wrap;html=1;fillColor=#FF3333;strokeColor=#FF3333;labelBackgroundColor=none;fontColor=#FFFFFF;" vertex="1" parent="2">
                    <mxGeometry y="170" width="120" height="60" as="geometry"/>
                </mxCell>
                <mxCell id="11" style="edgeStyle=none;html=1;entryX=0.5;entryY=0;entryDx=0;entryDy=0;strokeColor=#FF3333;labelBackgroundColor=none;fontColor=#FFFFFF;" edge="1" parent="2" source="3" target="10">
                    <mxGeometry relative="1" as="geometry"/>
                </mxCell>
                <mxCell id="12" style="edgeStyle=none;html=1;entryX=0.5;entryY=1;entryDx=0;entryDy=0;strokeColor=#FF3333;labelBackgroundColor=none;fontColor=#FFFFFF;" edge="1" parent="2" source="13" target="7">
                    <mxGeometry relative="1" as="geometry"/>
                </mxCell>
                <mxCell id="13" value="Retry Queue" style="rounded=0;whiteSpace=wrap;html=1;fillColor=#FF3333;strokeColor=#FF3333;labelBackgroundColor=none;fontColor=#FFFFFF;" vertex="1" parent="2">
                    <mxGeometry x="340" y="170" width="120" height="60" as="geometry"/>
                </mxCell>
                <mxCell id="14" style="edgeStyle=none;html=1;entryX=0.5;entryY=0;entryDx=0;entryDy=0;strokeColor=#FF3333;labelBackgroundColor=none;fontColor=#FFFFFF;" edge="1" parent="2" source="7" target="13">
                    <mxGeometry relative="1" as="geometry"/>
                </mxCell>
                <mxCell id="15" value="Pipeline Execution" style="text;html=1;strokeColor=#FF3333;fillColor=#FF3333;align=center;verticalAlign=middle;whiteSpace=wrap;rounded=0;labelBackgroundColor=none;fontColor=#FFFFFF;" vertex="1" parent="1">
                    <mxGeometry x="690" y="520" width="60" height="30" as="geometry"/>
                </mxCell>
            </root>
        </mxGraphModel>
    </diagram>
</mxfile>
